<svg width="25" height="25" viewBox="0 0 25 25" fill="none" xmlns="http://www.w3.org/2000/svg">
<path d="M1.04175 10.4155C0.765463 10.4155 0.500489 10.3057 0.305123 10.1103C0.109756 9.91496 0 9.64999 0 9.3737V1.04175C0 0.765463 0.109756 0.500489 0.305123 0.305123C0.500489 0.109756 0.765463 0 1.04175 0H9.37578C9.65207 0 9.91705 0.109756 10.1124 0.305123C10.3078 0.500489 10.4175 0.765463 10.4175 1.04175V9.3737C10.4175 9.64999 10.3078 9.91496 10.1124 10.1103C9.91705 10.3057 9.65207 10.4155 9.37578 10.4155H1.04175ZM15.6263 10.4155C15.35 10.4155 15.085 10.3057 14.8897 10.1103C14.6943 9.91496 14.5845 9.64999 14.5845 9.3737V1.04175C14.5845 0.765463 14.6943 0.500489 14.8897 0.305123C15.085 0.109756 15.35 0 15.6263 0H23.9582C24.2345 0 24.4995 0.109756 24.6949 0.305123C24.8902 0.500489 25 0.765463 25 1.04175V9.3737C25 9.64999 24.8902 9.91496 24.6949 10.1103C24.4995 10.3057 24.2345 10.4155 23.9582 10.4155H15.6263ZM1.04175 25C0.765463 25 0.500489 24.8902 0.305123 24.6949C0.109756 24.4995 0 24.2345 0 23.9582V15.6242C0 15.3479 0.109756 15.083 0.305123 14.8876C0.500489 14.6922 0.765463 14.5825 1.04175 14.5825H9.37578C9.65207 14.5825 9.91705 14.6922 10.1124 14.8876C10.3078 15.083 10.4175 15.3479 10.4175 15.6242V23.9582C10.4175 24.2345 10.3078 24.4995 10.1124 24.6949C9.91705 24.8902 9.65207 25 9.37578 25H1.04175ZM15.6263 25C15.35 25 15.085 24.8902 14.8897 24.6949C14.6943 24.4995 14.5845 24.2345 14.5845 23.9582V15.6242C14.5845 15.3479 14.6943 15.083 14.8897 14.8876C15.085 14.6922 15.35 14.5825 15.6263 14.5825H23.9582C24.2345 14.5825 24.4995 14.6922 24.6949 14.8876C24.8902 15.083 25 15.3479 25 15.6242V23.9582C25 24.2345 24.8902 24.4995 24.6949 24.6949C24.4995 24.8902 24.2345 25 23.9582 25H15.6263Z" fill="#979797"/>
</svg>
