<svg width="25" height="25" viewBox="0 0 25 25" fill="none" xmlns="http://www.w3.org/2000/svg">
<path d="M13.2675 0.263358C13.0481 0.092671 12.778 0 12.5 0C12.222 0 11.9519 0.092671 11.7325 0.263358L1.4475 8.26308C0.996451 8.61394 0.631555 9.06324 0.380685 9.57666C0.129814 10.0901 -0.000395564 10.654 9.02666e-07 11.2255V22.5001C9.02666e-07 23.1631 0.263393 23.799 0.732234 24.2678C1.20107 24.7366 1.83696 25 2.5 25H7.5C8.16304 25 8.79893 24.7366 9.26777 24.2678C9.73661 23.799 10 23.1631 10 22.5001V15.0003H15V22.5001C15 23.1631 15.2634 23.799 15.7322 24.2678C16.2011 24.7366 16.837 25 17.5 25H22.5C23.163 25 23.7989 24.7366 24.2678 24.2678C24.7366 23.799 25 23.1631 25 22.5001V11.2255C25.0001 10.6538 24.8695 10.0897 24.6182 9.57631C24.3669 9.06287 24.0015 8.61368 23.55 8.26308L13.2675 0.263358Z" fill="#979797"/>
</svg>
