<svg width="25" height="25" viewBox="0 0 25 25" fill="none" xmlns="http://www.w3.org/2000/svg">
<path d="M23.5343 0.00303046C21.1557 0.176579 16.4282 0.808272 13.5098 3.10514C13.3084 3.26362 13.1942 3.54542 13.1942 3.84007V24.1452C13.1942 24.7897 13.7424 25.1971 14.2047 24.898C17.2073 22.9549 21.5499 22.4248 23.697 22.2797C24.4301 22.23 25 21.4745 25 20.5688V1.71619C25.0004 0.727915 24.3338 -0.055005 23.5343 0.00303046ZM11.4902 3.10514C8.5722 0.808272 3.84468 0.177137 1.46617 0.00303046C0.666678 -0.055005 0 0.727915 0 1.71619V20.5693C0 21.4756 0.569888 22.2312 1.30297 22.2803C3.45101 22.4254 7.79571 22.956 10.7984 24.9002C11.2593 25.1988 11.8058 24.792 11.8058 24.1491V3.83002C11.8058 3.53482 11.692 3.26418 11.4902 3.10514Z" fill="#979797"/>
</svg>
